<svg width="20" height="21" viewBox="0 0 20 21" fill="none" xmlns="http://www.w3.org/2000/svg">
<path d="M20 4.40555C19.2642 4.73222 18.4733 4.95222 17.6433 5.05138C18.4908 4.54388 19.1417 3.73972 19.4475 2.78138C18.655 3.25138 17.7767 3.59305 16.8417 3.77722C16.0942 2.97972 15.0267 2.48138 13.8467 2.48138C11.1975 2.48138 9.25083 4.95305 9.84917 7.51888C6.44 7.34805 3.41667 5.71472 1.3925 3.23222C0.3175 5.07638 0.835 7.48888 2.66167 8.71055C1.99 8.68888 1.35667 8.50472 0.804167 8.19722C0.759167 10.0981 2.12167 11.8764 4.095 12.2722C3.5175 12.4289 2.885 12.4656 2.24167 12.3422C2.76333 13.9722 4.27833 15.1581 6.075 15.1914C4.35 16.5439 2.17667 17.1481 0 16.8914C1.81583 18.0556 3.97333 18.7347 6.29 18.7347C13.9083 18.7347 18.2125 12.3006 17.9525 6.52972C18.7542 5.95055 19.45 5.22805 20 4.40555Z" fill="#584D62"/>
</svg>
