<svg width="21" height="21" viewBox="0 0 21 21" fill="none" xmlns="http://www.w3.org/2000/svg">
<path d="M19.3958 0.608032H1.60417C0.994167 0.608032 0.5 1.1022 0.5 1.7122V19.5047C0.5 20.1139 0.994167 20.608 1.60417 20.608H11.1833V12.863H8.57667V9.8447H11.1833V7.61887C11.1833 5.03553 12.7608 3.62887 15.0658 3.62887C16.17 3.62887 17.1183 3.71137 17.395 3.74803V6.44803L15.7967 6.44887C14.5433 6.44887 14.3008 7.0447 14.3008 7.91803V9.84553H17.29L16.9008 12.8639H14.3008V20.608H19.3975C20.0058 20.608 20.5 20.1139 20.5 19.5039V1.7122C20.5 1.1022 20.0058 0.608032 19.3958 0.608032Z" fill="#584D62"/>
</svg>
